# xmcd
#
# Track frame offsets:
# 150
# 11441
# 22260
# 36388
# 49840
# 66698
# 82022
# 96266
# 115494
# 128411
# 141379
# 151133
# 171750
# 182547
# 208242
# 228165
#
# Disc length: 3490 seconds
#
#
# Revision: 0
# Processed by: cddbd v1.5.2PL0 Copyright (c) Steve Scherf et al.
# Submitted via: FreeRIP 2.945 
#
DISCID=e30da010
DTITLE=Signature Sound Quartet - Get Away. Jordan
DYEAR=2007
DGENRE=Gospel
TTITLE0=Someday
TTITLE1=He's my guide
TTITLE2=Lovest thou me ( more than these?)
TTITLE3=John in the jordan
TTITLE4=He made a change
TTITLE5=Until we fly away
TTITLE6=Beyound the blues
TTITLE7=It is done
TTITLE8=Our debts will be paid
TTITLE9=Get away, jordan
TTITLE10=Happy birthday.Aniversary too
TTITLE11=I pledge my allegiance
TTITLE12=The Star-Spangled Banner
TTITLE13=Oh. What a savior
TTITLE14=The plan of salvation (live version)
TTITLE15=Get away. Jordan (live version)
EXTD=
EXTT0=
EXTT1=
EXTT2=
EXTT3=
EXTT4=
EXTT5=
EXTT6=
EXTT7=
EXTT8=
EXTT9=
EXTT10=
EXTT11=
EXTT12=
EXTT13=
EXTT14=
EXTT15=
PLAYORDER=
